<svg xmlns="http://www.w3.org/2000/svg" enable-background="new 0 0 512 512" viewBox="0 0 512 512"><radialGradient id="a" cx="259" cy="329.998" r="234.155" gradientUnits="userSpaceOnUse"><stop offset=".737" stop-color="#ffc970"/><stop offset="1" stop-color="#ffb233"/></radialGradient><path fill="url(#a)" d="M507,95L507,95c-56.8-13.3-115-20-173.3-20h-57.9H256h-19.8h-57.9C120,75,61.8,81.7,5,95h0
			l48.1,65.4C22.1,197.6,5,244.6,5,293.2v0c0,86.5,53.7,163.9,134.7,194.3h0c34.6,12.9,71.2,19.6,108.1,19.6h16.3
			c36.9,0,73.6-6.6,108.1-19.6l0,0c81-30.3,134.7-107.7,134.7-194.3l0,0c0-48.6-17.1-95.6-48.1-132.8L507,95z"/><linearGradient id="b" x1="256" x2="256" y1="318.5" y2="497.101" gradientUnits="userSpaceOnUse"><stop offset=".483" stop-color="#ebeae0"/><stop offset="1" stop-color="#d7d5c1"/></linearGradient><path fill="url(#b)" d="M256,240L256,240c-12.4,0-23.9,6.5-30.2,17.2l-8.4,14.1c-6.5,11-18.4,17.7-31.1,17.7h0
			c-20,0-36.2,16.2-36.2,36.2v165.8c31.5,10.5,64.6,15.9,97.8,15.9h16.3c33.3,0,66.3-5.4,97.8-15.9V325.2c0-20-16.2-36.2-36.2-36.2
			h0c-12.8,0-24.6-6.7-31.1-17.7l-8.4-14.1C279.9,246.5,268.4,240,256,240z"/><path fill="#e36414" d="M9.2 334.5c2.1 10.6 5.1 20.9 8.8 30.9 25.8-10.5 43.6-24.2 40.8-31.9C56 325.9 34.7 326.6 9.2 334.5zM58.7 280.6c3.1-8.4-18.5-24-48.2-34.8 0 0 0 0 0 0-2.5 10.7-4.2 21.6-5 32.7C32.7 287.3 55.9 288.4 58.7 280.6zM501.5 245.7C501.5 245.7 501.5 245.7 501.5 245.7c-29.7 10.8-51.3 26.4-48.2 34.8 2.9 7.8 26.1 6.7 53.2-2.2C505.7 267.3 504 256.4 501.5 245.7zM453.3 333.4c-2.8 7.7 15 21.4 40.8 31.9 3.7-10 6.7-20.3 8.8-30.9C477.3 326.6 456 325.9 453.3 333.4zM170.8 75.1c.6 1.8 1.2 3.7 1.9 5.5 10.8 29.7 26.4 51.2 34.8 48.2 7.9-2.9 6.7-26.4-2.4-53.7h-26.9C175.8 75 173.3 75 170.8 75.1zM256 145c13.8 0 25-31.3 25-70h-5.2H256h-19.8H231C231 113.7 242.2 145 256 145zM333.7 75h-26.9c-9.1 27.4-10.3 50.9-2.4 53.7 8.4 3.1 24-18.5 34.8-48.2.7-1.8 1.3-3.7 1.9-5.5C338.7 75 336.2 75 333.7 75z"/><path fill="#ebeae0" d="M56.6 156.3L56.6 156.3c10.7-12.2 22.6-23.2 35.4-32.8L5 95l48.1 65.4C54.2 159 55.4 157.6 56.6 156.3zM420 123.4c12.8 9.7 24.6 20.6 35.4 32.8l0 0c1.2 1.4 2.4 2.7 3.5 4.1L507 95 420 123.4z"/><rect width="10" height="86" x="251" y="260" fill="#b24e10"/><rect width="10" height="41.2" x="103" y="303.4" fill="#b24e10" transform="rotate(75.96 108 324.015)"/><rect width="41.2" height="10" x="87.4" y="289" fill="#b24e10" transform="rotate(14.035 108.012 294.045)"/><rect width="10" height="41.2" x="399" y="273.4" fill="#b24e10" transform="rotate(75.96 404.013 294.017)"/><rect width="41.2" height="10" x="383.4" y="319" fill="#b24e10" transform="rotate(14.035 404.056 324.053)"/><path fill="#db3429" d="M232,320h48c22.1,0,40,17.9,40,40v0c0,9.3-9.7,15.5-18.1,11.5l0,0
			c-29.1-13.6-62.7-13.6-91.8,0l0,0c-8.4,4-18.1-2.2-18.1-11.5v0C192,337.9,209.9,320,232,320z"/><path fill="#1f3e75" d="M162 507L162 507c-5.5 0-10-4.5-10-10V361.3c0-41.3 6.8-82.2 20-121.3l0 0h20l-5.1 17.5C177 291.7 172 327.1 172 362.7V497C172 502.5 167.5 507 162 507zM350 507L350 507c5.5 0 10-4.5 10-10V361.3c0-41.3-6.8-82.2-20-121.3l0 0h-20l5.1 17.5c9.9 34.2 14.9 69.6 14.9 105.2V497C340 502.5 344.5 507 350 507z"/><path fill="#e36414" d="M261.9,240h-11.7c-7.8,0-14.1,6.3-14.1,14.1v0c0,3.8,1.5,7.3,4.1,10L256,280l15.9-15.9
			c2.7-2.7,4.1-6.2,4.1-10v0C276,246.3,269.7,240,261.9,240z"/><path fill="#b24e10" d="M172 205v-10c11.6 0 22.4-4.5 30.6-12.7l5.9-5.9 7.1 7.1-5.9 5.9C199.6 199.5 186.2 205 172 205zM340 205c-14.2 0-27.6-5.5-37.7-15.6l-5.9-5.9 7.1-7.1 5.9 5.9c8.2 8.2 19 12.7 30.6 12.7V205z"/><rect width="40" height="10" x="172" y="235" fill="#b24e10"/><rect width="40" height="10" x="300" y="235" fill="#b24e10"/></svg>