<svg xmlns="http://www.w3.org/2000/svg" data-name="Layer 1" viewBox="0 0 512 512"><path fill="#4ebaea" d="M345.88042,388.97166C350.41513,454.3159,301.48545,504.5,246.72147,504.5s-103.089-53.81187-99.159-115.52834C151.61735,325.296,246.72147,204,246.72147,204S341.46318,325.32014,345.88042,388.97166Z"/><path fill="#2e99d4" d="M177.5625,388.97168c3.03735-47.69678,57.15948-127.7207,84.13214-164.88135C252.68842,211.64136,246.7215,204,246.7215,204s-95.10413,121.2959-99.159,184.97168C143.63245,450.688,191.95752,504.5,246.7215,504.5a90.24029,90.24029,0,0,0,15.26361-1.30444C213.60632,494.648,173.98962,445.0791,177.5625,388.97168Z"/><path fill="#4ebaea" d="M165.65719,176.95485c2.9653,42.72925-29.03032,75.54515-64.841,75.54515s-67.411-35.18813-64.841-75.54515C38.6266,135.3167,100.81615,56,100.81615,56S162.76872,135.33247,165.65719,176.95485Z"/><path fill="#2e99d4" d="M65.9751,176.95483c1.80609-28.36181,31.23163-74.19775,49.81531-100.54858C107.11761,64.07129,100.81616,56,100.81616,56S38.62659,135.31665,35.9751,176.95483C33.40521,217.31177,65.00543,252.5,100.81616,252.5a59.35772,59.35772,0,0,0,15.24677-2.02271C86.80768,242.489,63.76624,211.64258,65.9751,176.95483Z"/><path fill="#4ebaea" d="M479.95894,156.42439C483.67121,209.91751,443.61564,251,398.78389,251s-84.39235-44.05231-81.175-94.57561C320.92828,104.29724,398.78389,5,398.78389,5S476.34283,104.317,479.95894,156.42439Z"/><path fill="#2e99d4" d="M347.60883,156.42432c2.38794-37.499,43.34771-99.40723,66.14862-131.20093C404.89142,12.82129,398.78387,5,398.78387,5s-77.85559,99.29736-81.175,151.42432C314.39154,206.94775,353.95215,251,398.78387,251a74.03805,74.03805,0,0,0,15.23914-1.59766C375.65527,241.08252,344.75061,201.30884,347.60883,156.42432Z"/></svg>