<svg xmlns="http://www.w3.org/2000/svg" enable-background="new 0 0 50 50" viewBox="0 0 50 50"><path d="M13,32.9c2.7-0.2,5.3-1.1,7.6-2.7c2.1-1.4,3.5-3.4,4.1-4.4c-0.3,2-1.4,7.6-4.8,11.3C15.3,42.5,8.4,41.8,8,41.8l0,0.3
		c0,0,0.4,0.2,1.2,0.5c3.9,1.6,9.5,0.3,12.9-3.6c1.8-2,3-4.5,3.5-7.3c0.5-2.5,0-4.9-0.3-6c1.2,1.7,4.4,6.4,4.6,11.4
		c0.6,7-4.8,11.4-5,11.7l0.2,0.2c0,0,0.4-0.1,1.2-0.5c3.8-1.6,6.9-6.5,6.6-11.7c-0.1-1-0.2-2-0.5-2.9c-0.6-2.4-1.9-4.6-3.7-6.5
		c-1.1-1.2-2.2-1.9-2.9-2.3c0.8,0.1,2,0.3,4.3,1.2c2.6,1.2,4.2,2.6,5,3.7c2.6,3.5,2.2,6.6,2.3,7.5l0.3,0c0,0,0.2-0.3,0.5-0.9
		c1.4-3.1,0.6-6.5-0.8-8.4c-1.4-1.9-3.2-3.6-6.4-4.2c-2.9-0.5-3.5-0.3-5.4,0.4c1.7-1.3,6.4-4.3,11.3-4.5c7.1-0.6,11.5,4.9,11.7,5
		l0.2-0.2c0,0-0.1-0.4-0.5-1.2c-1.6-3.9-6.5-6.9-11.7-6.6c-2.6,0.2-5.2,1-7.6,2.7c-2.1,1.4-3.5,3.4-4.1,4.5c0.3-2,1.4-7.6,4.8-11.3
		C34.7,7.5,41.6,8.2,42,8.2l0-0.3c0,0-0.4-0.2-1.2-0.5C37,5.8,31.3,7,27.9,10.9c-2.4,2.7-3.6,6.1-3.7,9.5c-0.1,1.7,0.2,3,0.4,3.7
		c-1.2-1.7-4.3-6.4-4.5-11.3c-0.6-7.1,4.9-11.5,5-11.7l-0.2-0.2c0,0-0.4,0.1-1.2,0.5C19.8,3,16.8,7.9,17.1,13
		c0.2,2.7,1.1,5.3,2.7,7.6c1.3,2.1,3.3,3.4,4.4,4c-2.9-0.5-3.8-0.8-6.7-2.5c-3.1-2.4-4.7-4.3-5-9.1c0-0.5,0-0.9,0-0.9l-0.3,0
		c0,0-0.2,0.3-0.5,0.9c-1.8,3.9-0.6,8.6,4.2,11.5c3.9,2.1,6.5,1.4,8.3,0.8c-1.7,1.3-6.4,4.3-11.3,4.5c-7,0.6-11.5-4.8-11.7-5
		l-0.2,0.2c0,0,0.1,0.4,0.5,1.2C3,30.2,7.9,33.2,13,32.9z"/><path d="M47.5 11.8c.1-.1.1-.2-.1-.2h-1.8c-.1 0-.1 0-.1-.1L45 9.8c0-.1-.2-.1-.3 0l-.5 1.7c0 .1-.1.1-.1.1h-1.8c-.1 0-.2.2-.1.2l1.4 1c0 0 .1.1 0 .1l-.5 1.7c0 .1.1.2.2.1l1.4-1c.1 0 .1 0 .2 0l1.4 1c.1.1.2 0 .2-.1L46 13c0-.1 0-.1 0-.1L47.5 11.8zM47.5 29.8c.1-.1.1-.2-.1-.2h-1.8c-.1 0-.1 0-.1-.1L45 27.8c0-.1-.2-.1-.3 0l-.5 1.7c0 .1-.1.1-.1.1h-1.8c-.1 0-.2.2-.1.2l1.4 1c0 0 .1.1 0 .1l-.5 1.7c0 .1.1.2.2.1l1.4-1c.1 0 .1 0 .2 0l1.4 1c.1.1.2 0 .2-.1L46 31c0-.1 0-.1 0-.1L47.5 29.8zM38.8 40.7l-.5 1.7c0 .1-.1.1-.1.1h-1.8c-.1 0-.2.2-.1.2l1.4 1c0 0 .1.1 0 .1l-.5 1.7c0 .1.1.2.2.1l1.4-1c.1 0 .1 0 .2 0l1.4 1c.1.1.2 0 .2-.1l-.5-1.7c0-.1 0-.1 0-.1l1.4-1c.1-.1.1-.2-.1-.2h-1.8c-.1 0-.1 0-.1-.1L39 40.7C39 40.6 38.8 40.6 38.8 40.7zM24.4 44c.1-.1.1-.2-.1-.2h-1.8c-.1 0-.1 0-.1-.1L21.9 42c0-.1-.2-.1-.3 0l-.5 1.7c0 .1-.1.1-.1.1h-1.8c-.1 0-.2.2-.1.2l1.4 1c0 0 .1.1 0 .1L20 46.8c0 .1.1.2.2.1l1.4-1c.1 0 .1 0 .2 0l1.4 1c.1.1.2 0 .2-.1l-.5-1.7c0-.1 0-.1 0-.1L24.4 44zM7.8 34.9c.1-.1.1-.2-.1-.2H6c-.1 0-.1 0-.1-.1l-.5-1.7c0-.1-.2-.1-.3 0l-.5 1.7c0 .1-.1.1-.1.1H2.6c-.1 0-.2.2-.1.2L4 36c0 0 .1.1 0 .1l-.5 1.7c0 .1.1.2.2.1l1.4-1c.1 0 .1 0 .2 0l1.4 1c.1.1.2 0 .2-.1l-.5-1.7c0-.1 0-.1 0-.1L7.8 34.9zM14.1 6.7c.1-.1.1-.2-.1-.2h-1.8c-.1 0-.1 0-.1-.1l-.5-1.7c0-.1-.2-.1-.3 0l-.5 1.7c0 .1-.1.1-.1.1H8.9c-.1 0-.2.2-.1.2l1.4 1c0 0 .1.1 0 .1L9.8 9.6c0 .1.1.2.2.1l1.4-1c.1 0 .1 0 .2 0l1.4 1c.1.1.2 0 .2-.1l-.5-1.7c0-.1 0-.1 0-.1L14.1 6.7zM7.2 17c.1-.1.1-.2-.1-.2H5.3c-.1 0-.1 0-.1-.1L4.7 15c0-.1-.2-.1-.3 0l-.5 1.7c0 .1-.1.1-.1.1H2c-.1 0-.2.2-.1.2l1.4 1c0 0 .1.1 0 .1l-.5 1.7C2.8 19.9 2.9 20 3 20l1.4-1c.1 0 .1 0 .2 0L6 20c.1.1.2 0 .2-.1l-.5-1.7c0-.1 0-.1 0-.1L7.2 17zM30.3 4.9c.1-.1.1-.2-.1-.2h-1.8c-.1 0-.1 0-.1-.1l-.5-1.7c0-.1-.2-.1-.3 0L27 4.6c0 .1-.1.1-.1.1h-1.8c-.1 0-.2.2-.1.2l1.4 1c0 0 .1.1 0 .1l-.5 1.7c0 .1.1.2.2.1l1.4-1c.1 0 .1 0 .2 0l1.4 1c.1.1.2 0 .2-.1l-.5-1.7c0-.1 0-.1 0-.1L30.3 4.9zM48.9 3.4l-1.3-.7c0 0-.1-.1-.1-.1l.2-1.4C47.8 1 47.7 1 47.6 1l-1 1c0 0-.1 0-.1 0l-1.3-.7c-.1-.1-.2 0-.2.1l.7 1.3c0 0 0 .1 0 .1l-1 1c-.1.1 0 .2.1.2L46.1 4c0 0 .1 0 .1.1l.7 1.3c0 .1.2.1.2 0l.2-1.4c0 0 0-.1.1-.1l1.4-.2C49 3.6 49 3.4 48.9 3.4z"/><circle cx="37" cy="13" r="1.2"/><circle cx="37" cy="3.2" r="1.2"/><circle cx="9.5" cy="23.8" r="1.2"/><circle cx="23.6" cy="12.3" r="1.2"/><circle cx="38.9" cy="24" r="1.2"/><circle cx="14.7" cy="35.8" r="1.2"/><circle cx="43.2" cy="37" r="1.2"/></svg>