<svg xmlns="http://www.w3.org/2000/svg" viewBox="0 0 64 64"><path d="M29.487 8.953l-.6 1.853a1 1 0 0 0 1.539 1.117L32 10.779l1.575 1.144a1 1 0 0 0 1.539-1.117l-.6-1.853 1.575-1.144A1 1 0 0 0 35.5 6H33.553l-.6-1.852a1 1 0 0 0-1.9 0L30.447 6H28.5a1 1 0 0 0-.588 1.809zM32 7.563a1 1 0 0 0 .545.4 1 1 0 0 0-.208.642.992.992 0 0 0-.674 0 1 1 0 0 0-.208-.642A1 1 0 0 0 32 7.563zM42.311 14.724a1 1 0 0 0 1.413-.035 21.652 21.652 0 0 1 6.692-4.78A21.893 21.893 0 0 1 60.935 8a1 1 0 1 0 .13-2A23.946 23.946 0 0 0 49.584 8.091a23.593 23.593 0 0 0-7.308 5.22A1 1 0 0 0 42.311 14.724zM35.6 16.919a1 1 0 0 0 1.314-.523 20.094 20.094 0 0 1 5.713-7.621 19.541 19.541 0 0 1 4.758-2.853 1 1 0 0 0-.778-1.844 21.617 21.617 0 0 0-5.242 3.147A22.063 22.063 0 0 0 35.082 15.6 1 1 0 0 0 35.6 16.919zM61.065 23a23.957 23.957 0 0 0-11.481 2.089 23.593 23.593 0 0 0-7.308 5.22 1 1 0 1 0 1.448 1.378 21.652 21.652 0 0 1 6.692-4.78A21.893 21.893 0 0 1 60.935 25a1 1 0 1 0 .13-2zM56.611 27.078a21.617 21.617 0 0 0-5.242 3.147A22.063 22.063 0 0 0 45.082 38.6a1 1 0 1 0 1.836.792 20.094 20.094 0 0 1 5.713-7.621 19.541 19.541 0 0 1 4.758-2.853 1 1 0 0 0-.778-1.844zM14.451 41.691A1 1 0 0 0 13.5 41H11.553l-.6-1.852a1 1 0 0 0-1.9 0L8.447 41H6.5a1 1 0 0 0-.588 1.809l1.575 1.144-.6 1.853a1 1 0 0 0 1.539 1.117L10 45.779l1.575 1.144a1 1 0 0 0 1.539-1.117l-.6-1.853 1.575-1.144A1 1 0 0 0 14.451 41.691zM10.337 43.6a.992.992 0 0 0-.674 0 1 1 0 0 0-.208-.642 1 1 0 0 0 .545-.4 1 1 0 0 0 .545.4A1 1 0 0 0 10.337 43.6zM14.416 50.091A23.956 23.956 0 0 0 2.935 48a1 1 0 1 0 .13 2 21.9 21.9 0 0 1 10.519 1.911 21.652 21.652 0 0 1 6.692 4.78 1 1 0 0 0 1.448-1.378A23.593 23.593 0 0 0 14.416 50.091zM22.631 49.225a21.617 21.617 0 0 0-5.242-3.147 1 1 0 0 0-.778 1.844 19.541 19.541 0 0 1 4.758 2.853A20.094 20.094 0 0 1 27.082 58.4a1 1 0 1 0 1.836-.792A22.063 22.063 0 0 0 22.631 49.225z"/><path d="M48.991,56.036a3,3,0,0,0-4.1-1.1l-2.6,1.5a1,1,0,1,1-1-1.732l5.2-3a3,3,0,1,0-3-5.2l-2.6,1.5a1,1,0,0,1-1.367-.366h0l4.33-2.5a1,1,0,0,0,.367-1.367L41.7,39.4a2.5,2.5,0,0,0-1.01-4.287,2.507,2.507,0,0,0-1.439.045l-.551-.953a2.5,2.5,0,0,0-2.449-4.243l-.551-.953a2.5,2.5,0,0,0-2.449-4.244l-.551-.953a2.5,2.5,0,0,0-2.449-4.243l-.551-.953a2.5,2.5,0,0,0,.508-3.121,2.508,2.508,0,0,0-2.957-1.122l-.551-.953A2.5,2.5,0,0,0,24.248,9.18L22.413,6,24.691,4.67a1,1,0,0,0-.4-1.858L10.028,1.383a1,1,0,0,0-1.006.572L2.764,15.384A1,1,0,0,0,4.175,16.67l2.7-1.579,1.784,3.09A2.5,2.5,0,0,0,9.67,22.468a2.578,2.578,0,0,0,.649.086,2.441,2.441,0,0,0,.782-.144l.558.966a2.5,2.5,0,0,0,1.011,4.288,2.533,2.533,0,0,0,.649.086,2.467,2.467,0,0,0,.782-.143l.558.965A2.5,2.5,0,0,0,15.67,32.86a2.533,2.533,0,0,0,.649.086A2.467,2.467,0,0,0,17.1,32.8l.558.966a2.5,2.5,0,0,0,1.01,4.287,2.548,2.548,0,0,0,.651.086A2.461,2.461,0,0,0,20.1,38l.558.966A2.484,2.484,0,0,0,23.1,43.194l.559.967a2.5,2.5,0,0,0,1.011,4.287,2.533,2.533,0,0,0,.649.086,2.467,2.467,0,0,0,.782-.143l2.525,4.373,4.485,8.694a1,1,0,0,0,.607.5A1.05,1.05,0,0,0,34,62a.994.994,0,0,0,.5-.134l2.6-1.5a1,1,0,0,0,.389-1.324l-4.063-7.875,4.37-2.523a3.006,3.006,0,0,0,4.1,1.1l2.6-1.5a1,1,0,1,1,1,1.732l-5.195,3a3,3,0,0,0,3,5.2l2.6-1.5a1,1,0,0,1,1.366.366l.5.866a1,1,0,1,0,1.733-1ZM37.49,36.117l-12.124,7-.5-.865,12.125-7Zm-3-5.2-12.124,7-.5-.865,12.125-7Zm-3-5.2-12.124,7-.5-.866,12.125-7Zm-3.5-6.062.5.865-12.124,7-.5-.865Zm-2.5-4.331-12.124,7-.5-.865,12.125-7ZM10.535,3.443l9.85.988c-.009,0-.02,0-.029.009L6.5,12.44a.989.989,0,0,0-.268.237Zm-4.5,9.668a.99.99,0,0,0-.012.164l-.089.052Zm14.656-6.1,1.8,3.125-12.124,7L8.6,14.081ZM9.884,20.3a.5.5,0,0,1,.183-.683l.433-.25h0l14.29-8.25a.488.488,0,0,1,.249-.067.5.5,0,0,1,.251.932l-.433.25h0l-14.289,8.25A.5.5,0,0,1,9.884,20.3Zm3,5.2a.5.5,0,0,1,.183-.684l.433-.249h0l13.856-8h0l.431-.249a.507.507,0,0,1,.249-.066.5.5,0,0,1,.252.933l-.433.25h0l-14.289,8.25A.5.5,0,0,1,12.884,25.5Zm3,5.2a.5.5,0,0,1,.183-.683l.433-.25h0l14.29-8.25a.5.5,0,0,1,.25-.068.464.464,0,0,1,.128.017.5.5,0,0,1,.122.917l-.433.25h0l-14.289,8.25A.5.5,0,0,1,15.884,30.694Zm3.3,5.43a.5.5,0,0,1-.121-.917l.433-.25h0l14.29-8.25a.488.488,0,0,1,.249-.067.5.5,0,0,1,.433.25.5.5,0,0,1-.182.683l-.433.25h0l-14.289,8.25A.49.49,0,0,1,19.188,36.124Zm2.7,4.962a.5.5,0,0,1,.183-.683l.433-.25h0L36.79,31.9a.488.488,0,0,1,.249-.067.5.5,0,0,1,.251.934l-.433.249h0L23,41.02h0l-.43.249A.5.5,0,0,1,21.884,41.086Zm3,5.2a.5.5,0,0,1,.183-.682l.433-.25h0L39.79,37.1a.489.489,0,0,1,.249-.068.5.5,0,0,1,.251.933l-.433.25h0l-14.289,8.25A.5.5,0,0,1,24.884,46.282ZM39.99,40.447l2,3.464-12.124,7-2-3.464ZM35.272,59.111l-.864.5-3.582-6.942.864-.5Z"/></svg>