<svg xmlns="http://www.w3.org/2000/svg" enable-background="new 0 0 65 65" viewBox="0 0 65 65"><path fill="#387bfe" d="M22.39061 61.96531c-.46681 0-.87776-.33709-.9554-.81242l-.40337-2.45573c-.08711-.52836.27081-1.02736.79917-1.114.5312-.08474 1.02736.27176 1.11353.79964l.40337 2.45573c.08711.52836-.27081 1.02736-.79916 1.114C22.49571 61.96104 22.44269 61.96531 22.39061 61.96531zM17.32292 61.80528c-.15813 0-.31815-.03835-.46681-.12025-.4687-.25802-.64009-.84745-.38159-1.31663l1.32089-2.40128c.25755-.46918.84651-.64151 1.31711-.38206.4687.25802.64009.84745.38159 1.31663l-1.32089 2.40128C17.9971 61.62395 17.66475 61.80528 17.32292 61.80528zM27.1411 60.1918c-.23483 0-.4687-.08427-.65524-.25518l-2.01969-1.85209c-.39485-.36171-.42136-.97528-.05965-1.36966.36171-.39627.97434-.42183 1.37013-.05918l2.01969 1.85209c.39485.36171.42136.97528.05965 1.36966C27.66472 60.08623 27.40338 60.1918 27.1411 60.1918zM42.61213 62.41886c-.05208 0-.1051-.00426-.15813-.01278-.52835-.08664-.88628-.58564-.79916-1.114l.40337-2.45573c.08617-.52836.58422-.88865 1.11353-.79964.52836.08664.88628.58564.79916 1.114l-.40337 2.45573C43.48989 62.08177 43.07894 62.41886 42.61213 62.41886zM47.67887 62.25883c-.34277 0-.67418-.18132-.8503-.50232l-1.31995-2.40128c-.2585-.46965-.08711-1.05908.38254-1.31711.46776-.25708 1.05956-.08617 1.31616.38254l1.31995 2.40128c.2585.46965.08711 1.05908-.38254 1.31711C47.99702 62.22049 47.83701 62.25883 47.67887 62.25883zM37.86165 60.64536c-.26229 0-.52362-.10558-.71489-.31436-.36171-.39437-.3352-1.00795.05965-1.36966l2.01969-1.85209c.39296-.36218 1.00748-.33662 1.37013.05918.36171.39437.33519 1.00795-.05965 1.36966l-2.01969 1.85209C38.3313 60.56108 38.09647 60.64536 37.86165 60.64536zM29.24151 44.92742c1.17324-1.28953 1.67745-3.00574 1.39623-4.72196l-3.39361-20.64282.3394-.05817c1.26047-.21334 2.23978-1.11507 2.55977-2.35613.31022-1.24112-.12605-2.50159-1.13448-3.27726L15.25015 3.24421c-.68838-.53327-1.58046-.76596-2.45306-.62056-.86296.14546-1.63863.63997-2.12343 1.37688L1.0455 18.45728c-.7175 1.06654-.7272 2.4046-.02912 3.4809.60115.92107 1.58046 1.4544 2.64706 1.4544.17452 0 .34904-.01941.53327-.04853l.33934-.05817.76602 4.64444c0 .0097 0 .0097 0 .01935l1.67739 10.20995c0 0 0 .0097 0 .01941l.95019 5.75945c.2424 1.50287 1.05689 2.81181 2.28825 3.69418.97931.69809 2.12343 1.06654 3.29667 1.06654.31028 0 .62056-.02912.93084-.07758l.04847-.00971.43633 2.62765c.10664.68844.4848 1.27988 1.04713 1.6871.44604.31998.9696.4848 1.50293.4848.14541 0 .29087-.00971.43628-.02906l2.18161-.35875.47515 2.86028c.07753.47515.4848.81449.95019.81449.05817 0 .10664 0 .15511-.0097.53327-.08723.89208-.59144.80479-1.11501l-.4751-2.87005 2.19131-.35875c.68838-.10664 1.27988-.4848 1.6871-1.04719.40722-.56239.57203-1.25077.45568-1.93921l-.43627-2.61794.04847-.0097C27.23448 46.51759 28.39796 45.87767 29.24151 44.92742zM28.72765 40.52545c.15511.9696-.06788 1.93921-.63991 2.73429-1.56111-.28122-2.81187-1.52229-3.07368-3.13186-.16482-.98895.06788-1.98767.64968-2.81181.55262-.77567 1.36712-1.29929 2.28825-1.49323L28.72765 40.52545zM3.87672 21.43397c-.49451.07759-.9599-.12605-1.23141-.55268-.27146-.41692-.27146-.92113.00971-1.34776l9.63785-14.46646c.18423-.28116.4848-.4751.8242-.53327.06782-.00971.1357-.00971.20358-.00971.26181 0 .52362.08729.74661.25211l13.74896 10.62681c.40722.31028.57209.78538.44604 1.27018-.12605.49451-.49451.8339-.99872.91143l-1.27018.21334c-.0097 0-.0097 0-.01941 0L6.8243 20.94917 3.87672 21.43397zM26.36182 26.12681c-1.07624.12605-2.15249-.1454-3.03486-.78538-.94049-.66903-1.55134-1.66769-1.74527-2.80211-.10664-.70785-.04847-1.41564.17452-2.07496l1.61922-.27152.11635-.01935 1.84227-.30058L26.36182 26.12681zM8.75386 36.98637l-1.40594-8.49373C7.37698 28.483 7.39639 28.483 7.4158 28.47329c2.34642-.38787 4.55709 1.212 4.94495 3.55843.18423 1.13442-.07758 2.27854-.74661 3.20938s-1.66769 1.55134-2.80211 1.73557C8.79262 36.98637 8.77321 36.98637 8.75386 36.98637zM24.31597 50.1633c-.10664.1454-.26181.2424-.43633.27146l-6.28301 1.02777c-.17452.02912-.3491-.00965-.49451-.10664-.13576-.10664-.23269-.26181-.26181-.43634l-.43633-2.61788 7.59201-1.25083.43633 2.62765C24.46137 49.85302 24.4129 50.02754 24.31597 50.1633zM25.64432 44.81108l-11.51889 1.89074c-.97931.16481-1.96832-.06788-2.77305-.64962-.81449-.5818-1.34776-1.4447-1.51258-2.42401l-.77573-4.73167h.05817c1.65804-.27152 3.10274-1.17324 4.07234-2.521.9696-1.35741 1.34776-3.01545 1.0763-4.66379-.55268-3.39361-3.78147-5.71092-7.17508-5.14859-.01941 0-.03876.00971-.05817.01941L6.4462 22.9756l4.86737-.79502 8.36768-1.37688c-.10664.66903-.12605 1.35747-.0097 2.04591.27152 1.65798 1.16353 3.10268 2.521 4.07228 1.07625.76602 2.33672 1.17324 3.62631 1.17324.28116 0 .57209-.02912.85325-.06788l.9696 5.8855c-1.43499.28116-2.69552 1.07624-3.54878 2.27854-.89202 1.23141-1.24106 2.74399-.99866 4.25657.31028 1.87133 1.52228 3.42273 3.15121 4.2081C26.05154 44.72384 25.8479 44.78202 25.64432 44.81108z"/><path fill="#8dd1fe" d="M24.43232 49.6785c.02906.17452-.01941.34904-.11635.4848-.10664.1454-.26181.2424-.43633.27146l-6.28301 1.02777c-.17452.02912-.3491-.00965-.49451-.10664-.13576-.10664-.23269-.26181-.26181-.43634l-.43633-2.61788 7.59201-1.25083L24.43232 49.6785zM28.08774 43.25974c-1.56111-.28122-2.81187-1.52229-3.07368-3.13186-.16482-.98895.06788-1.98767.64968-2.81181.55262-.77567 1.36712-1.29929 2.28825-1.49323l.77567 4.70261C28.88276 41.49505 28.65977 42.46465 28.08774 43.25974zM26.36182 26.12681c-1.07624.12605-2.15249-.1454-3.03486-.78538-.94049-.66903-1.55134-1.66769-1.74527-2.80211-.10664-.70785-.04847-1.41564.17452-2.07496l1.61922-.27152.11635-.01935 1.84227-.30058L26.36182 26.12681zM11.61414 35.2411c-.66903.93084-1.66769 1.55134-2.80211 1.73557-.01941.0097-.03882.0097-.05817.0097l-1.40594-8.49373C7.37698 28.483 7.39639 28.483 7.4158 28.47329c2.34642-.38787 4.55709 1.212 4.94495 3.55843C12.54498 33.16614 12.28316 34.31026 11.61414 35.2411z"/><path fill="#387bfe" d="M63.96304,18.91302L54.32519,4.44651c-0.4848-0.7272-1.26053-1.22171-2.12343-1.36711c-0.86296-0.14546-1.75498,0.08723-2.45313,0.62056l-13.74896,10.6171c-1.01807,0.78538-1.45441,2.04591-1.13442,3.28697c0.31028,1.24112,1.28953,2.14284,2.5597,2.35613l0.32969,0.04847l-1.17324,7.15567l-2.22037,13.49691c-0.28116,1.71616,0.2327,3.43237,1.38653,4.71226c0.85325,0.9599,2.02649,1.59981,3.29667,1.80345l0.04847,0.0097l-0.42663,2.62764c-0.11634,0.68838,0.04847,1.37682,0.44604,1.93921c0.40722,0.56233,1.00837,0.93078,1.6968,1.04713l2.18161,0.35875l-0.46545,2.87005c-0.08723,0.52356,0.26181,1.02777,0.79508,1.11507c0.04847,0,0.10664,0.00964,0.15517,0.00964c0.46539,0,0.88231-0.33934,0.9599-0.81443l0.46539-2.86034l2.19131,0.35875c0.14546,0.01941,0.28116,0.02912,0.42663,0.02912c0.54297,0,1.06654-0.16488,1.51258-0.4848c0.56239-0.40728,0.93084-1.00842,1.04719-1.6871l0.42663-2.62764l0.05817,0.0097c0.31028,0.04847,0.6205,0.06788,0.93078,0.06788c1.17324,0,2.31736-0.35875,3.28697-1.05689c1.23141-0.89202,2.04585-2.20102,2.29795-3.69418l0.95019-5.77885v-0.00965l0.81449-4.98377l1.62893-9.88025l0.3394,0.05817c0.17452,0.02906,0.35875,0.04847,0.53327,0.04847c1.06654,0,2.04585-0.53327,2.63729-1.4544C64.68054,21.31762,64.67083,19.97956,63.96304,18.91302z M36.28083,40.98113l0.77573-4.70255c0.93078,0.19393,1.72586,0.71749,2.27854,1.49317c0.59145,0.81449,0.82414,1.81315,0.65932,2.81187c-0.26181,1.59987-1.53199,2.85064-3.09304,3.12209C36.34871,42.92034,36.12572,41.95074,36.28083,40.98113z M48.16817,51.37531c-0.02906,0.17452-0.12605,0.32963-0.27146,0.42663c-0.14547,0.10664-0.31999,0.1454-0.49451,0.11635l-6.28307-1.02778c-0.17452-0.02911-0.32963-0.12605-0.42657-0.27151c-0.1067-0.1454-0.14546-0.31993-0.11641-0.4848l0.42663-2.62759l3.12215,0.51386l4.46986,0.73691L48.16817,51.37531z M56.97218,33.07891l-0.71749,4.36321c-0.01941,0-0.03882,0-0.06788-0.00971c-1.13442-0.18423-2.13314-0.80479-2.80217-1.73557c-0.66903-0.93084-0.93084-2.07497-0.74662-3.21909c0.19394-1.13448,0.80479-2.12343,1.73563-2.79246c0.74655-0.53327,1.60951-0.81449,2.50153-0.81449c0.23276,0,0.47515,0.01941,0.71756,0.05817c0.01935,0.00971,0.03876,0.00971,0.05817,0.00971L56.97218,33.07891z M57.9612,27.02859c-0.01941,0-0.03882-0.0097-0.05817-0.0097c-1.64833-0.27152-3.30638,0.11635-4.65414,1.08595c-1.35741,0.9696-2.24949,2.4143-2.52094,4.06264c-0.27152,1.64833,0.11635,3.30632,1.08595,4.65408c0.9696,1.35747,2.4143,2.25919,4.06264,2.53065h0.06788l-0.78538,4.73167c-0.15517,0.97931-0.69814,1.84227-1.50287,2.42401c-0.81449,0.58179-1.8035,0.81449-2.78275,0.64962l-6.87451-1.12471l-3.63601-0.60115l-1.00837-0.16482c-0.20364-0.02912-0.40728-0.08729-0.60115-0.15517c1.62893-0.78537,2.84093-2.33672,3.15121-4.20804c0.25204-1.51258-0.1067-3.02515-0.98901-4.26628c-0.85326-1.19259-2.11373-1.98767-3.54878-2.26889l0.9696-5.88544c0.28122,0.03876,0.56239,0.06782,0.84355,0.06782c1.2993,0,2.55977-0.40722,3.62637-1.17318c1.35741-0.97931,2.24949-2.42401,2.52094-4.07234c0.11635-0.68844,0.10664-1.37682-0.0097-2.05555l12.59513,2.07496l0.63997,0.10664L57.9612,27.02859z M38.64667,26.57285l1.02777-6.24425l3.56813,0.5818c0.23275,0.66903,0.29093,1.37682,0.17458,2.08461c-0.18423,1.13442-0.80479,2.13314-1.73563,2.80217C40.78951,26.43709,39.72297,26.70861,38.64667,26.57285z M62.35347,21.33703c-0.27146,0.42657-0.73691,0.63021-1.23141,0.55262l-23.38682-3.84929c-0.49451-0.07759-0.8726-0.41692-0.98895-0.91143c-0.12605-0.4848,0.03876-0.9696,0.43627-1.27018L50.94122,5.23188c0.27152-0.21328,0.60115-0.29087,0.95025-0.2424c0.33934,0.05817,0.63021,0.25211,0.82414,0.53327l9.62815,14.46652C62.62498,20.40619,62.63463,20.92005,62.35347,21.33703z"/><path fill="#8dd1fe" d="M57.65092 28.93868l-.67873 4.14022-.71749 4.36321c-.01941 0-.03882 0-.06788-.00971-1.13442-.18423-2.13314-.80479-2.80217-1.73557-.66903-.93084-.93084-2.07497-.74662-3.21909.19394-1.13448.80479-2.12343 1.73563-2.79246.74655-.53327 1.60951-.81449 2.50153-.81449.23276 0 .47515.01941.71756.05817C57.61209 28.93868 57.63151 28.93868 57.65092 28.93868zM43.41716 22.99501c-.18423 1.13442-.80479 2.13314-1.73563 2.80217-.89202.63991-1.95856.91143-3.03486.77567l1.02777-6.24425 3.56813.5818C43.47533 21.57943 43.5335 22.28722 43.41716 22.99501zM39.99443 40.58362c-.26181 1.59987-1.53199 2.85064-3.09304 3.12209-.55268-.78538-.77567-1.75498-.62056-2.72458l.77573-4.70255c.93078.19393 1.72586.71749 2.27854 1.49317C39.92655 38.58624 40.15924 39.5849 39.99443 40.58362zM48.5948 48.75737l-.42663 2.61794c-.02906.17452-.12605.32963-.27146.42663-.14547.10664-.31999.1454-.49451.11635l-6.28307-1.02778c-.17452-.02911-.32963-.12605-.42657-.27151-.1067-.1454-.14546-.31993-.11641-.4848l.42663-2.62759 3.12215.51386L48.5948 48.75737z"/></svg>